<?xml version="1.0" encoding="utf-8"?>
<!-- Generator: Adobe Illustrator 23.0.3, SVG Export Plug-In . SVG Version: 6.00 Build 0)  -->
<svg version="1.1" id="Слой_1" xmlns="http://www.w3.org/2000/svg" xmlns:xlink="http://www.w3.org/1999/xlink" x="0px" y="0px"
	 viewBox="0 0 18 18" style="enable-background:new 0 0 18 18;" xml:space="preserve">
<style type="text/css">
	.st0{fill:none;}
	.st1{fill:#FFFFFF;}
</style>
<g>
	<path class="st0" d="M18,18c-6,0-12,0-18,0C0,12,0,6,0,0c6,0,12,0,18,0C18,6,18,12,18,18z"/>
	<path class="st1" d="M0.4,9.3c0-2.8,0-2.8,2.8-2.8c0.2,0,0.5,0,0.7,0C6,6.5,6,6.4,6.1,4.4c0-0.4,0.1-0.7,0.2-1.1
		c0.3-1,1.2-0.5,1.7,0c1.4,1.4,2.2,2.1,3.5,3.3c0.5,0.5,1.1,1,1.6,1.6c0.6,0.7,0.6,1.5,0,2.1c-1.6,1.6-3.4,3-4.8,4.8
		c-0.4,0.6-1,0.8-1.4,0.7c-0.7-0.2-0.6-1-0.7-1.6c-0.1-2-0.2-2.1-2.2-2.1c-0.8,0-1.7,0-2.5,0S0.3,11.8,0.4,11
		C0.4,10.5,0.4,9.9,0.4,9.3z"/>
	<path class="st1" d="M17.7,9.5c0,1.4,0,2.6-0.1,3.9c0,1.7-1.4,3.1-3.1,3.1c-1.1,0-3.1,0-3.1,0s-1,0.1-1.2-0.8
		c0.1-0.8,0.7-0.7,1.1-0.8c0.7,0,1.4,0,2,0c1.7,0,2.5-0.9,2.6-2.5c0-2.1,0-4.2,0-6.4c0-1.5-0.9-2.3-2.4-2.4
		c-0.8-0.1-1.6-0.1-2.3-0.1c-0.4,0-1,0.1-1-0.8c0-0.7,0.6-0.8,0.9-0.8c1.5,0,3-0.1,4.4,0.3c0.8,0.2,1.7,1.2,1.9,2
		c0.4,1.6,0.2,2.6,0.3,4.3C17.7,9,17.7,9.1,17.7,9.5z"/>
</g>
</svg>
