<?xml version="1.0" encoding="UTF-8" standalone="no"?>
<!DOCTYPE svg PUBLIC "-//W3C//DTD SVG 1.1//EN" "http://www.w3.org/Graphics/SVG/1.1/DTD/svg11.dtd">
<svg version="1.1" xmlns="http://www.w3.org/2000/svg" xmlns:xlink="http://www.w3.org/1999/xlink" preserveAspectRatio="xMidYMid meet" viewBox="0 0 12 22" width="12" height="22"><defs><path d="M0 7.33L0 11L3 11L3 22L8 22L8 11L11.6 11L12 7.33L8 7.33C8 6.4 8 5.88 8 5.78C8 4.86 8.2 4.58 9.1 4.58C9.29 4.58 10.26 4.58 12 4.58L12 0C9.72 0 8.45 0 8.2 0C4.6 0 3 1.47 3 4.22C3 4.42 3 5.46 3 7.33L0 7.33Z" id="e1o1qfV0km"></path></defs><g><g><g><use xlink:href="#e1o1qfV0km" opacity="1" fill="#ffffff" fill-opacity="1"></use><g><use xlink:href="#e1o1qfV0km" opacity="1" fill-opacity="0" stroke="#000000" stroke-width="1" stroke-opacity="0"></use></g></g></g></g></svg>