<?xml version="1.0" encoding="UTF-8" standalone="no"?>
<!DOCTYPE svg PUBLIC "-//W3C//DTD SVG 1.1//EN" "http://www.w3.org/Graphics/SVG/1.1/DTD/svg11.dtd">
<svg version="1.1" xmlns="http://www.w3.org/2000/svg" xmlns:xlink="http://www.w3.org/1999/xlink" preserveAspectRatio="xMidYMid meet" viewBox="0 0 20 20" width="20" height="20"><defs><path d="M18.11 0.05L18.35 0.11L18.57 0.2L18.79 0.31L18.99 0.44L19.18 0.59L19.35 0.75L19.5 0.94L19.63 1.14L19.75 1.35L19.85 1.58L19.92 1.82L19.97 2.07L20 2.33L20 17.67L19.99 17.93L19.94 18.18L19.88 18.42L19.79 18.65L19.67 18.86L19.54 19.06L19.39 19.25L19.22 19.41L19.03 19.56L18.83 19.69L18.62 19.8L18.4 19.89L18.16 19.95L17.92 19.99L17.68 20L2.32 20L2.06 19.99L1.81 19.95L1.57 19.89L1.34 19.8L1.13 19.69L0.93 19.57L0.75 19.42L0.58 19.26L0.44 19.08L0.31 18.89L0.2 18.68L0.11 18.46L0.05 18.23L0.01 18L0 17.75L0 2.33L0.01 2.07L0.05 1.82L0.11 1.58L0.2 1.35L0.31 1.14L0.44 0.94L0.58 0.75L0.75 0.59L0.93 0.44L1.13 0.31L1.34 0.2L1.57 0.11L1.81 0.05L2.06 0.01L2.32 0L17.59 0L17.85 0.01L18.11 0.05ZM15.87 8.4L15.9 8.48L15.92 8.55L15.94 8.63L15.96 8.71L15.97 8.79L15.99 8.87L16 8.95L16.01 9.02L16.01 9.1L16.02 9.17L16.04 9.23L16.05 9.3L16.07 9.37L16.08 9.44L16.09 9.52L16.09 9.59L16.1 9.67L16.1 9.74L16.1 9.83L16.1 9.91L16.1 10L16.03 10.91L15.84 11.78L15.53 12.6L15.11 13.36L14.6 14.05L13.99 14.66L13.31 15.18L12.55 15.6L11.74 15.91L10.87 16.1L9.96 16.17L9.05 16.1L8.18 15.91L7.36 15.6L6.61 15.18L5.93 14.66L5.32 14.05L4.8 13.36L4.39 12.6L4.08 11.78L3.88 10.91L3.82 10L3.82 9.93L3.82 9.86L3.82 9.78L3.82 9.7L3.83 9.62L3.83 9.54L3.84 9.46L3.85 9.39L3.86 9.31L3.88 9.24L3.9 9.17L3.9 9.08L3.91 8.99L3.92 8.91L3.93 8.83L3.94 8.76L3.96 8.68L3.98 8.61L4 8.54L4.02 8.47L4.04 8.4L4.07 8.33L2.49 8.33L2.49 16.75L2.5 16.86L2.52 16.97L2.56 17.07L2.61 17.16L2.67 17.24L2.75 17.32L2.83 17.38L2.92 17.43L3.02 17.47L3.13 17.49L3.24 17.5L16.68 17.5L16.79 17.49L16.9 17.47L17 17.43L17.09 17.38L17.17 17.32L17.25 17.24L17.31 17.16L17.36 17.07L17.4 16.97L17.42 16.86L17.43 16.75L17.43 8.33L15.85 8.33L15.87 8.4ZM7.27 7.3L6.45 8.52L6.14 10L6.45 11.48L7.27 12.7L8.49 13.53L9.96 13.83L11.43 13.53L12.65 12.7L13.47 11.48L13.78 10L13.47 8.52L12.65 7.3L11.43 6.47L9.96 6.17L8.49 6.47L7.27 7.3ZM14.56 2.56L14.33 2.72L14.17 2.96L14.11 3.25L14.11 5.08L14.17 5.38L14.33 5.61L14.56 5.77L14.85 5.83L16.68 5.83L16.88 5.79L17.07 5.65L17.26 5.41L17.43 5.08L17.43 3.25L17.37 2.96L17.21 2.72L16.97 2.56L16.68 2.5L14.85 2.5L14.56 2.56Z" id="d25nrwDiiS"></path></defs><g><g><g><use xlink:href="#d25nrwDiiS" opacity="1" fill="#ffffff" fill-opacity="1"></use><g><use xlink:href="#d25nrwDiiS" opacity="1" fill-opacity="0" stroke="#000000" stroke-width="1" stroke-opacity="0"></use></g></g></g></g></svg>