<?xml version="1.0" encoding="UTF-8" standalone="no"?>
<!DOCTYPE svg PUBLIC "-//W3C//DTD SVG 1.1//EN" "http://www.w3.org/Graphics/SVG/1.1/DTD/svg11.dtd">
<svg version="1.1" xmlns="http://www.w3.org/2000/svg" xmlns:xlink="http://www.w3.org/1999/xlink" preserveAspectRatio="xMidYMid meet" viewBox="0 0 27 15" width="27" height="15"><defs><path d="M15.1 14.03C15.1 11.99 15.85 10.92 17.35 12.31C18.96 13.92 19.28 14.99 21.2 14.99C21.55 14.99 24.29 14.99 24.63 14.99C25.49 14.99 25.81 14.67 25.81 14.24C25.81 13.28 24.31 11.67 23.03 10.49C21.2 8.78 21.1 8.78 22.7 6.75C24.52 4.28 26.99 1.07 24.74 1.07C24.31 1.07 20.88 1.07 20.46 1.07C19.6 1.07 19.6 1.5 19.28 2.25C18.21 4.71 16.17 8.03 15.42 7.5C14.56 6.96 14.99 4.93 14.99 1.82C14.99 0.96 14.99 0.43 13.82 0.21C13.17 0.11 12.53 0 11.89 0C9.53 0 7.82 1.07 8.78 1.18C10.5 1.5 10.28 5.14 9.96 6.75C9.32 9.53 6.75 4.6 5.68 2.14C5.35 1.5 5.25 1.07 4.28 1.07C3.94 1.07 1.2 1.07 0.86 1.07C0.32 1.07 0 1.28 0 1.61C0 2.25 3.21 8.78 6.21 12.1C9.1 15.31 12.1 14.99 14.14 14.99C14.78 14.99 15.1 14.56 15.1 14.03Z" id="akqiBjz0y"></path></defs><g><g><g><use xlink:href="#akqiBjz0y" opacity="1" fill="#ffffff" fill-opacity="1"></use><g><use xlink:href="#akqiBjz0y" opacity="1" fill-opacity="0" stroke="#000000" stroke-width="1" stroke-opacity="0"></use></g></g></g></g></svg>