<?xml version="1.0" encoding="UTF-8" standalone="no"?>
<!DOCTYPE svg PUBLIC "-//W3C//DTD SVG 1.1//EN" "http://www.w3.org/Graphics/SVG/1.1/DTD/svg11.dtd">
<svg version="1.1" xmlns="http://www.w3.org/2000/svg" xmlns:xlink="http://www.w3.org/1999/xlink" preserveAspectRatio="xMidYMid meet" viewBox="0 0 12.5 17" width="12.5" height="17"><defs><path d="M7.6 0.18L8.17 0.4L8.69 0.68L9.16 1.04L9.58 1.46L9.94 1.94L10.23 2.46L10.45 3.02L10.58 3.62L10.62 4.25L10.62 7.08L12.75 7.08L12.75 17L0 17L0 7.08L2.12 7.08L2.12 4.25L2.17 3.62L2.3 3.02L2.52 2.46L2.81 1.94L3.17 1.46L3.59 1.04L4.06 0.68L4.58 0.4L5.15 0.18L5.75 0.05L6.37 0L7 0.05L7.6 0.18ZM5.37 10.33L5.07 10.78L4.96 11.33L5.01 11.71L5.15 12.05L5.38 12.33L5.67 12.55L5.67 14.17L7.08 14.17L7.08 12.55L7.37 12.33L7.6 12.05L7.74 11.71L7.79 11.33L7.68 10.78L7.38 10.33L6.93 10.03L6.37 9.92L5.82 10.03L5.37 10.33ZM4.37 2.25L3.76 3.15L3.54 4.25L3.54 7.08L9.21 7.08L9.21 4.25L8.99 3.15L8.38 2.25L7.48 1.64L6.37 1.42L5.27 1.64L4.37 2.25Z" id="a2BPoyx8Cf"></path></defs><g><g><g><use xlink:href="#a2BPoyx8Cf" opacity="1" fill="#000000" fill-opacity="1"></use><g><use xlink:href="#a2BPoyx8Cf" opacity="1" fill-opacity="0" stroke="#000000" stroke-width="1" stroke-opacity="0"></use></g></g></g></g></svg>